<svg xmlns="http://www.w3.org/2000/svg" viewBox="0 0 128 128">
  <defs>
    <linearGradient id="g" x1="0" y1="0" x2="1" y2="1">
      <stop offset="0" stop-color="#e60023"/>
      <stop offset="1" stop-color="#bd081c"/>
    </linearGradient>
  </defs>
  <rect width="128" height="128" rx="28" fill="url(#g)"/>
  <path fill="#fff" d="M60 30h20c14 0 24 8 24 22 0 15-11 24-26 24-4 0-8-1-11-3v22a4 4 0 0 1-4 4h-9a4 4 0 0 1-4-4V34a4 4 0 0 1 4-4Zm13 15h-6v22c2 2 5 3 8 3 7 0 11-4 11-12 0-8-5-13-13-13Z"/>
  <path fill="#fff" d="M96 78l-16 8v-16z" opacity="0.0"/>
</svg>
